# xmcd
#
# Track frame offsets:
#       150
#       23059
#       30473
#       55473
#       75947
#       94424
#       112957
#       129479
#       146607
#       159645
#       172684
#       199818
#
# Disc length: 2935 seconds
#
# Revision: 0
# Processed by: cddbd v1.4PL0 Copyright (c) Steve Scherf et al.
# Submitted via: WhereIsIt 3.25
#
DISCID=920b750c
DTITLE=John Denver - The Very Best Of John Denver [CD 2)
DYEAR=1900
DGENRE=
TTITLE0=Sunshine On My Shoulders
TTITLE1=Deal With The Ladies
TTITLE2=Amazon
TTITLE3=Eclipse
TTITLE4=Tenderly Calling
TTITLE5=Islands
TTITLE6=Children Of The Universe
TTITLE7=Calypso
TTITLE8=Flower That Shattered The Stone
TTITLE9=American Child
TTITLE10=A Little Further North
TTITLE11=Sing Australia
EXTD=
EXTT0=
EXTT1=
EXTT2=
EXTT3=
EXTT4=
EXTT5=
EXTT6=
EXTT7=
EXTT8=
EXTT9=
EXTT10=
EXTT11=
PLAYORDER=
